Coordinates
version=1
nRows=8
nColumns=63
inDegrees=yes

Units are S.I. units (second, meters, Newtons, ...)
If the header above contains a line with 'inDegrees', this indicates whether rotational values are in degrees (yes) or radians (no).

endheader
time	pelvis_tilt	pelvis_list	pelvis_rotation	pelvis_tx	pelvis_ty	pelvis_tz	hip_flexion_r	hip_adduction_r	hip_rotation_r	knee_angle_r	knee_angle_r_beta	ankle_angle_r	subtalar_angle_r	mtp_angle_r	hip_flexion_l	hip_adduction_l	hip_rotation_l	knee_angle_l	knee_angle_l_beta	ankle_angle_l	subtalar_angle_l	mtp_angle_l	L5_S1_Flex_Ext	L5_S1_Lat_Bending	L5_S1_axial_rotation	L4_L5_Flex_Ext	L4_L5_Lat_Bending	L4_L5_axial_rotation	L3_L4_Flex_Ext	L3_L4_Lat_Bending	L3_L4_axial_rotation	L2_L3_Flex_Ext	L2_L3_Lat_Bending	L2_L3_axial_rotation	L1_L2_Flex_Ext	L1_L2_Lat_Bending	L1_L2_axial_rotation	L1_T12_Flex_Ext	L1_T12_Lat_Bending	L1_T12_axial_rotation	Abs_r3	Abs_r2	Abs_r1	Abs_t1	Abs_t2	neck_flexion	neck_bending	neck_rotation	arm_flex_r	arm_add_r	arm_rot_r	elbow_flex_r	pro_sup_r	wrist_flex_r	wrist_dev_r	arm_flex_l	arm_add_l	arm_rot_l	elbow_flex_l	pro_sup_l	wrist_flex_l	wrist_dev_l
      0.00000000	     -2.30374890	     -4.58858223	     84.56129150	      0.30926411	      0.90626921	      0.74943996	      0.73491381	     -1.16850976	      1.90140085	      6.47751732	      0.11305400	     29.38075539	     15.25993156	      0.00000000	     -1.94049001	     -1.43163340	      5.66388278	      0.90906879	      0.01586624	     28.88226316	    -14.83736268	      0.00000000	      0.03546663	     -0.20247407	      2.93784355	      0.06586507	     -0.26929051	      3.12145878	      0.05826812	     -0.49229546	      3.12145878	      0.04053481	     -0.49229546	      2.57061311	      0.03293431	     -0.41288513	      2.38699789	      0.02026563	     -0.31363234	      2.20338267	      0.25333458	     -2.29042719	     16.33940450	      0.00000000	      0.00000000	     12.49561490	      2.24913116	    -15.85264452	     -2.03587230	     -5.98869220	     17.61358395	     72.89544014	     72.31345730	      0.71192887	      9.06853855	     15.75570537	    -10.95805383	     44.61306047	     67.93674242	     61.75354441	     -3.11497801	     11.60178044
      0.02000000	     -2.65814367	     -4.83658759	     83.68355405	      0.31005046	      0.90604560	      0.74722593	      0.97747553	     -1.54672277	      2.38212249	      6.49359018	      0.11333453	     29.61975897	     15.00545324	      0.00000000	     -1.95700539	     -0.99672906	      5.72562161	      1.02357060	      0.01786468	     28.29004172	    -15.08201668	      0.00000000	      0.07720120	     -0.24278682	      2.70235679	      0.14337035	     -0.32290647	      2.87125409	      0.12683386	     -0.59031188	      2.87125409	      0.08823325	     -0.59031188	      2.36456219	      0.07168904	     -0.49509089	      2.19566489	      0.04411277	     -0.37607679	      2.02676759	      0.55144047	     -2.74645308	     15.02969774	      0.00000000	      0.00000000	     13.22754801	      2.71296619	    -14.12935317	     -1.49917017	     -6.73490014	     20.20116263	     73.09366955	     77.77167074	      1.53039806	      8.55986005	     13.35505936	    -12.24260601	     40.92480037	     70.48925934	     63.45364689	      2.11828928	     15.12675124
      0.04000000	     -2.96381371	     -4.98844494	     82.94225905	      0.31067862	      0.90593526	      0.74568071	      1.17534565	     -1.87517260	      2.82989767	      6.57519725	      0.11475884	     29.77930301	     14.92320965	      0.00000000	     -1.96384193	     -0.61652015	      5.45390842	      1.13502812	      0.01980998	     27.91209390	    -15.13610009	      0.00000000	      0.10783670	     -0.27619538	      2.55752348	      0.20026354	     -0.36733985	      2.71736870	      0.17716492	     -0.67154144	      2.71736870	      0.12324657	     -0.67154144	      2.23783304	      0.10013716	     -0.56321762	      2.07798783	      0.06161789	     -0.42782664	      1.91814261	      0.77026680	     -3.12437736	     14.22417833	      0.00000000	      0.00000000	     13.74138846	      3.27481167	    -12.68566236	     -1.03588815	     -7.42952005	     22.27253373	     73.34610394	     81.83918099	      2.41966652	      7.74763172	     11.72178047	    -13.18438162	     39.05572536	     72.17923654	     64.24109831	      5.47843169	     16.14825179
      0.06000000	     -3.09668487	     -5.01376270	     82.55851812	      0.31084798	      0.90587687	      0.74453579	      1.15271702	     -2.03428038	      2.89082404	      6.53429800	      0.11404501	     29.84339545	     14.96384834	      0.00000000	     -2.02922544	     -0.41781900	      5.30008926	      1.22124209	      0.02131470	     27.83489876	    -15.19371455	      0.00000000	      0.11940215	     -0.29405982	      2.54282861	      0.22174173	     -0.39109956	      2.70175540	      0.19616579	     -0.71497705	      2.70175540	      0.13646472	     -0.71497705	      2.22497504	      0.11087684	     -0.59964679	      2.06604825	      0.06822639	     -0.45549866	      1.90712146	      0.85287761	     -3.32646352	     14.14244990	      0.00000000	      0.00000000	     13.97933903	      3.28392152	    -12.80468025	     -1.07677998	     -8.08269508	     23.29104813	     74.03775330	     82.44125538	      2.93636432	      7.61585493	     11.13047012	    -13.87164320	     39.47338078	     73.26363396	     64.47662273	      6.12148773	     15.70336819
      0.08000000	     -3.38457498	     -5.00194682	     82.04843585	      0.31130124	      0.90609766	      0.74428879	      1.28570064	     -2.34657660	      3.19932411	      6.72016115	      0.11728894	     29.82785660	     15.12687521	      0.00000000	     -2.01339633	     -0.07095478	      4.58132529	      1.35822247	      0.02370545	     27.69080779	    -14.95832154	      0.00000000	      0.12200399	     -0.32898838	      2.53276311	      0.22657361	     -0.43755454	      2.69106080	      0.20044035	     -0.79990234	      2.69106080	      0.13943836	     -0.79990234	      2.21616772	      0.11329290	     -0.67087310	      2.05787002	      0.06971308	     -0.50960300	      1.89957233	      0.87146230	     -3.72158233	     14.08646857	      0.00000000	      0.00000000	     14.15120506	      3.64844397	    -12.38941670	     -0.67811929	     -8.48062169	     24.23992168	     74.01717717	     85.66627984	      4.30366253	      6.11421716	     10.52600225	    -14.35605527	     39.60175057	     73.48218345	     66.95030149	      7.46578558	     11.88924244
      0.10000000	     -3.58295886	     -4.96647222	     81.75849894	      0.31164169	      0.90618159	      0.74415013	      1.30139870	     -2.55322375	      3.32945885	      6.76601403	      0.11808922	     29.83640270	     15.27530757	      0.00000000	     -1.99582187	      0.16384367	      4.09885178	      1.47347388	      0.02571697	     27.70499519	    -14.87805744	      0.00000000	      0.12094331	     -0.36036895	      2.57038392	      0.22460382	     -0.47929070	      2.73103291	      0.19869777	     -0.87620106	      2.73103291	      0.13822611	     -0.87620106	      2.24908593	      0.11230796	     -0.73486436	      2.08843693	      0.06910701	     -0.55821150	      1.92778794	      0.86388598	     -4.07656562	     14.29570422	      0.00000000	      0.00000000	     14.26128590	      3.79995618	    -12.80536600	     -0.48545075	     -8.85400745	     24.90568360	     74.23912484	     86.19109550	      4.89458641	      5.57483007	     10.31227614	    -14.77139413	     40.59698673	     73.70389247	     67.90760645	      6.97804169	      8.95402003
      0.12000000	     -3.57705687	     -4.92730587	     81.68970256	      0.31157855	      0.90635901	      0.74414462	      1.29618557	     -2.55863144	      3.24365347	      6.87754486	      0.12003580	     29.77059996	     15.36684467	      0.00000000	     -1.96332398	      0.17844574	      3.27563547	      1.60960066	      0.02809283	     28.03674164	    -14.07625780	      0.00000000	      0.11980413	     -0.35892494	      2.65605553	      0.22248824	     -0.47737017	      2.82205900	      0.19682620	     -0.87269011	      2.82205900	      0.13692414	     -0.87269011	      2.32404858	      0.11125011	     -0.73191974	      2.15804511	      0.06845608	     -0.55597474	      1.99204164	      0.85574889	     -4.06023073	     14.77218402	      0.00000000	      0.00000000	     14.14121852	      3.72624535	    -13.16509610	     -0.73438095	     -9.01514659	     24.57344351	     74.43342390	     86.57725384	      4.81505119	      4.76799778	     10.63329302	    -15.13520739	     43.14303784	     73.54441969	     68.35665501	      4.08099022	      4.51857120
      0.14000000	     -3.70813670	     -4.88950287	     81.66671983	      0.31148310	      0.90640472	      0.74429297	      1.30013232	     -2.71404633	      3.10315341	      6.93221918	      0.12099005	     30.00131079	     15.60935128	      0.00000000	     -1.87247345	      0.32817309	      2.08947968	      1.81995595	      0.03176422	     28.51911322	    -12.72432942	      0.00000000	      0.11481279	     -0.37731537	      2.69426713	      0.21321883	     -0.50182944	      2.86265883	      0.18862593	     -0.91740458	      2.86265883	      0.13121954	     -0.91740458	      2.35748374	      0.10661516	     -0.76942150	      2.18909205	      0.06560403	     -0.58446150	      2.02070035	      0.82009628	     -4.26826689	     14.98470552	      0.00000000	      0.00000000	     14.11629898	      3.68694541	    -13.64220527	     -0.72644455	     -8.98599262	     24.35486992	     74.32418760	     86.85357451	      4.64239872	      4.20937903	     10.54600076	    -15.35741381	     44.63289216	     73.44283820	     68.27475247	      1.71329204	      1.41932621
